<svg width="46" height="28" viewBox="0 0 46 28" fill="none" xmlns="http://www.w3.org/2000/svg">
<path d="M11.75 0.5C9.95979 0.5 8.2429 1.21116 6.97703 2.47703C5.71116 3.7429 5 5.45979 5 7.25H41C41 5.45979 40.2888 3.7429 39.023 2.47703C37.7571 1.21116 36.0402 0.5 34.25 0.5H11.75ZM11.75 27.5C9.95979 27.5 8.2429 26.7888 6.97703 25.523C5.71116 24.2571 5 22.5402 5 20.75H41C41 22.5402 40.2888 24.2571 39.023 25.523C37.7571 26.7888 36.0402 27.5 34.25 27.5H11.75ZM2.75 11.75C2.15326 11.75 1.58097 11.9871 1.15901 12.409C0.737053 12.831 0.5 13.4033 0.5 14C0.5 14.5967 0.737053 15.169 1.15901 15.591C1.58097 16.0129 2.15326 16.25 2.75 16.25H43.25C43.8467 16.25 44.419 16.0129 44.841 15.591C45.2629 15.169 45.5 14.5967 45.5 14C45.5 13.4033 45.2629 12.831 44.841 12.409C44.419 11.9871 43.8467 11.75 43.25 11.75H2.75Z" fill="white"/>
</svg>
