<svg width="206" height="143" viewBox="0 0 206 143" fill="none" xmlns="http://www.w3.org/2000/svg">
  <path
    d="M174.523 62.4297C170.022 27.2721 139.668 0 103 0C74.6132 0 49.955 16.445 38.6971 42.3791C16.5727 48.9469 0 69.6614 0 91.9286C0 119.068 21.5167 141.11 48.4924 142.704V143H164.697V142.969L164.8 143C187.522 143 206 124.676 206 102.143C205.988 92.9859 202.88 84.0974 197.174 76.8982C191.468 69.699 183.493 64.6047 174.523 62.4297V62.4297ZM61.8 71.5H92.7V40.8571H113.3V71.5H144.2L103 122.571L61.8 71.5Z"
    fill="white" />
</svg>
